<svg width="95" height="19" viewBox="0 0 95 19" fill="none" xmlns="http://www.w3.org/2000/svg">
<path fill-rule="evenodd" clip-rule="evenodd" d="M0.727997 0.815998H11.624V3.888H3.968V8.064H10.856V11.136H3.968V18H0.727997V0.815998ZM20.692 16.464H20.5C20.132 17.056 19.636 17.524 19.012 17.868C18.388 18.212 17.676 18.384 16.876 18.384C15.388 18.384 14.28 17.928 13.552 17.016C12.824 16.104 12.46 14.888 12.46 13.368V6.24H15.604V12.984C15.604 13.832 15.792 14.46 16.168 14.868C16.544 15.276 17.092 15.48 17.812 15.48C18.244 15.48 18.624 15.388 18.952 15.204C19.28 15.02 19.56 14.772 19.792 14.46C20.024 14.148 20.2 13.78 20.32 13.356C20.44 12.932 20.5 12.48 20.5 12V6.24H23.644V18H20.692V16.464ZM25.632 6.24H28.584V7.872H28.776C28.92 7.584 29.112 7.32 29.352 7.08C29.592 6.84 29.86 6.632 30.156 6.456C30.452 6.28 30.772 6.144 31.116 6.048C31.46 5.952 31.8 5.904 32.136 5.904C32.552 5.904 32.908 5.944 33.204 6.024C33.5 6.104 33.752 6.208 33.96 6.336L33.12 9.192C32.928 9.096 32.716 9.02 32.484 8.964C32.252 8.908 31.968 8.88 31.632 8.88C31.2 8.88 30.808 8.964 30.456 9.132C30.104 9.3 29.804 9.536 29.556 9.84C29.308 10.144 29.116 10.5 28.98 10.908C28.844 11.316 28.776 11.76 28.776 12.24V18H25.632V6.24ZM37.652 7.776H37.844C38.212 7.184 38.708 6.716 39.332 6.372C39.956 6.028 40.668 5.856 41.468 5.856C42.204 5.856 42.852 5.976 43.412 6.216C43.972 6.456 44.432 6.796 44.792 7.236C45.152 7.676 45.424 8.20399 45.608 8.82C45.792 9.436 45.884 10.12 45.884 10.872V18H42.74V11.256C42.74 10.408 42.552 9.78 42.176 9.372C41.8 8.964 41.252 8.76 40.532 8.76C40.1 8.76 39.72 8.852 39.392 9.036C39.064 9.22 38.784 9.468 38.552 9.78C38.32 10.092 38.144 10.46 38.024 10.884C37.904 11.308 37.844 11.76 37.844 12.24V18H34.7V6.24H37.652V7.776ZM49.528 4.536C49.256 4.536 48.996 4.484 48.748 4.38C48.5 4.276 48.284 4.132 48.1 3.948C47.916 3.764 47.772 3.552 47.668 3.312C47.564 3.072 47.512 2.808 47.512 2.52C47.512 2.232 47.564 1.968 47.668 1.728C47.772 1.488 47.916 1.276 48.1 1.092C48.284 0.907997 48.5 0.763998 48.748 0.659998C48.996 0.555997 49.256 0.503998 49.528 0.503998C50.088 0.503998 50.568 0.699996 50.968 1.092C51.368 1.484 51.568 1.96 51.568 2.52C51.568 3.08 51.368 3.556 50.968 3.948C50.568 4.34 50.088 4.536 49.528 4.536ZM47.968 18V6.24H51.112V18H47.968ZM54.468 8.928H52.404V6.24H54.468V2.64H57.612V6.24H60.492V8.928H57.612V13.488C57.612 13.76 57.64 14.012 57.696 14.244C57.752 14.476 57.86 14.672 58.02 14.832C58.244 15.088 58.564 15.216 58.98 15.216C59.252 15.216 59.468 15.188 59.628 15.132C59.788 15.076 59.94 15 60.084 14.904L60.972 17.664C60.604 17.84 60.208 17.972 59.784 18.06C59.36 18.148 58.892 18.192 58.38 18.192C57.788 18.192 57.256 18.1 56.784 17.916C56.312 17.732 55.916 17.48 55.596 17.16C54.844 16.44 54.468 15.416 54.468 14.088V8.928ZM70.232 16.464H70.04C69.672 17.056 69.176 17.524 68.552 17.868C67.928 18.212 67.216 18.384 66.416 18.384C64.928 18.384 63.82 17.928 63.092 17.016C62.364 16.104 62 14.888 62 13.368V6.24H65.144V12.984C65.144 13.832 65.332 14.46 65.708 14.868C66.084 15.276 66.632 15.48 67.352 15.48C67.784 15.48 68.164 15.388 68.492 15.204C68.82 15.02 69.1 14.772 69.332 14.46C69.564 14.148 69.74 13.78 69.86 13.356C69.98 12.932 70.04 12.48 70.04 12V6.24H73.184V18H70.232V16.464ZM75.172 6.24H78.124V7.872H78.316C78.46 7.584 78.652 7.32 78.892 7.08C79.132 6.84 79.4 6.632 79.696 6.456C79.992 6.28 80.312 6.144 80.656 6.048C81 5.952 81.34 5.904 81.676 5.904C82.092 5.904 82.448 5.944 82.744 6.024C83.04 6.104 83.292 6.208 83.5 6.336L82.66 9.192C82.468 9.096 82.256 9.02 82.024 8.964C81.792 8.908 81.508 8.88 81.172 8.88C80.74 8.88 80.348 8.964 79.996 9.132C79.644 9.3 79.344 9.536 79.096 9.84C78.848 10.144 78.656 10.5 78.52 10.908C78.384 11.316 78.316 11.76 78.316 12.24V18H75.172V6.24ZM94.656 15.168C94.112 16.128 93.38 16.904 92.46 17.496C91.54 18.088 90.416 18.384 89.088 18.384C88.192 18.384 87.364 18.228 86.604 17.916C85.844 17.604 85.184 17.168 84.624 16.608C84.064 16.048 83.628 15.388 83.316 14.628C83.004 13.868 82.848 13.032 82.848 12.12C82.848 11.272 83 10.468 83.304 9.708C83.608 8.94799 84.032 8.284 84.576 7.716C85.12 7.14799 85.764 6.696 86.508 6.36C87.252 6.024 88.072 5.856 88.968 5.856C89.912 5.856 90.752 6.012 91.488 6.324C92.224 6.636 92.84 7.068 93.336 7.62C93.832 8.172 94.208 8.82399 94.464 9.576C94.72 10.328 94.848 11.144 94.848 12.024V12.312C94.832 12.408 94.824 12.496 94.824 12.576C94.808 12.656 94.8 12.744 94.8 12.84H85.944C86.008 13.32 86.14 13.732 86.34 14.076C86.54 14.42 86.788 14.708 87.084 14.94C87.38 15.172 87.704 15.34 88.056 15.444C88.408 15.548 88.768 15.6 89.136 15.6C89.856 15.6 90.452 15.436 90.924 15.108C91.396 14.78 91.768 14.368 92.04 13.872L94.656 15.168ZM91.8 10.608C91.784 10.4 91.716 10.168 91.596 9.912C91.476 9.656 91.3 9.416 91.068 9.192C90.836 8.968 90.548 8.784 90.204 8.64C89.86 8.496 89.448 8.424 88.968 8.424C88.296 8.424 87.704 8.616 87.192 9C86.68 9.384 86.32 9.91999 86.112 10.608H91.8Z" fill="#2C2E3F"/>
</svg>
